<svg width="147" height="40" viewBox="0 0 147 40" fill="none" xmlns="http://www.w3.org/2000/svg">
<g clip-path="url(#clip0_39_379)">
<path fill-rule="evenodd" clip-rule="evenodd" d="M17.9517 26.1414H22.0496L27.0528 34.8121H24.9028V37.4061H21.2979V34.8121H18.7034V37.4061H15.0985V34.8121H12.9485L17.9517 26.1414ZM26.1394 22.0525V17.9556L34.8122 12.9535V15.103H37.4067V18.7071H34.8122V21.301H37.4067V24.9051H34.8122V27.0545L26.1394 22.0525ZM22.0496 13.8667H17.9517L12.9485 5.19596H15.0985V2.59394H18.7034V5.18788H21.2979V2.59394H24.9028V5.18788H27.0528L22.0496 13.8586V13.8667ZM13.8618 17.9556V22.0525L5.18909 27.0545V24.9051H2.59455V21.301H5.18909V18.7071H2.59455V15.103H5.18909V12.9535L13.8618 17.9556ZM16.4564 16.4606H23.5368V23.5394H16.4564V16.4606ZM16.4564 23.5394L8.4545 37.4061H12.5039V40H27.5054V37.4061H31.5548L23.553 23.5475L37.4148 31.5475V27.499H40.0093V12.501H37.4148V8.45253L23.553 16.4525L31.5468 2.59394H27.4973V0H12.5039V2.59394H8.4545L16.4564 16.4525L2.59455 8.45253V12.501H0V27.499H2.59455V31.5475L16.4564 23.5475V23.5394Z" fill="#FFC800"/>
<path d="M53.4022 24.5093V15.5073H55.6492C58.6479 15.5073 60.4746 17.3254 60.4746 20.0083C60.4746 22.6911 58.6559 24.5093 55.6492 24.5093H53.4022ZM68.1935 22.0446C68.1935 20.1133 69.4787 18.8285 71.0871 18.8285C72.6956 18.8285 73.9807 20.1133 73.9807 22.0446C73.9807 23.9759 72.6956 25.2608 71.0871 25.2608C69.4787 25.2608 68.1935 23.9759 68.1935 22.0446ZM65.0817 22.0446C65.0817 25.2608 67.6358 27.8305 71.0871 27.8305C74.5384 27.8305 77.0926 25.2608 77.0926 22.0446C77.0926 18.8285 74.498 16.2588 71.0871 16.2588C67.6762 16.2588 65.0817 18.8285 65.0817 22.0446ZM81.6916 22.0446C81.6916 19.984 82.8475 18.8285 84.4802 18.8285C85.9997 18.8285 87.1636 19.984 87.1636 22.0446C87.1636 24.1052 86.0078 25.2608 84.4802 25.2608C82.8475 25.2608 81.6916 24.1052 81.6916 22.0446ZM78.6929 27.5073H81.6916V26.1174H81.7967C82.0311 26.4406 82.314 26.7153 82.6292 26.9739C83.2112 27.4022 84.0194 27.8305 85.2238 27.8305C88.0123 27.8305 90.2593 25.584 90.2593 22.0446C90.2593 18.5052 88.0123 16.2588 85.2238 16.2588C84.0194 16.2588 83.2112 16.6871 82.6292 17.1153C82.3059 17.3739 82.0311 17.6487 81.7967 17.9719H81.6916V12.5093H78.6929V27.5153V27.5073ZM92.0941 27.5073H95.0927V21.7214C95.0927 20.2022 96.0384 19.2568 97.663 19.2568H99.2715V16.3638H97.9863C96.8952 16.3638 96.2081 16.8325 95.7798 17.285C95.5211 17.5436 95.3271 17.8426 95.1978 18.182H95.0927V16.5739H92.0941V27.5073ZM102.957 22.0446C102.957 20.1133 104.242 18.8285 105.851 18.8285C107.459 18.8285 108.744 20.1133 108.744 22.0446C108.744 23.9759 107.459 25.2608 105.851 25.2608C104.242 25.2608 102.957 23.9759 102.957 22.0446ZM99.8454 22.0446C99.8454 25.2608 102.4 27.8305 105.851 27.8305C109.302 27.8305 111.856 25.2608 111.856 22.0446C111.856 18.8285 109.262 16.2588 105.851 16.2588C102.44 16.2588 99.8454 18.8285 99.8454 22.0446ZM116.455 22.0446C116.455 19.984 117.611 18.8285 119.244 18.8285C120.763 18.8285 121.927 19.984 121.927 22.0446C121.927 24.1052 120.771 25.2608 119.244 25.2608C117.611 25.2608 116.455 24.1052 116.455 22.0446ZM113.457 27.5073H116.455V26.1174H116.56C116.795 26.4406 117.078 26.7153 117.393 26.9739C117.975 27.4022 118.791 27.8305 119.987 27.8305C122.776 27.8305 125.023 25.584 125.023 22.0446C125.023 18.5052 122.768 16.2588 119.987 16.2588C118.791 16.2588 117.975 16.6871 117.393 17.1153C117.07 17.3739 116.795 17.6487 116.56 17.9719H116.455V12.5093H113.457V27.5153V27.5073ZM129.428 22.0446C129.428 19.984 130.584 18.8285 132.111 18.8285C133.744 18.8285 134.9 19.984 134.9 22.0446C134.9 24.1052 133.744 25.2608 132.111 25.2608C130.592 25.2608 129.428 24.1052 129.428 22.0446ZM126.316 22.0446C126.316 25.584 128.571 27.8305 131.352 27.8305C132.556 27.8305 133.364 27.4022 133.946 26.9739C134.27 26.7153 134.544 26.4406 134.779 26.1174H134.884V27.5073H137.883V16.5739H134.884V17.9638H134.779C134.544 17.6406 134.261 17.3658 133.946 17.1073C133.364 16.679 132.556 16.2507 131.352 16.2507C128.563 16.2507 126.316 18.5052 126.316 22.0366V22.0446ZM139.394 19.1517H140.784V27.5073H147V24.9376H143.783V19.1517H146.87V16.582H143.783V13.584H140.784V16.582H139.394V19.1517ZM50.1934 27.5073H55.6573C60.4826 27.5073 63.8046 24.186 63.8046 20.0083C63.8046 15.8305 60.4826 12.5093 55.6573 12.5093H50.1934V27.5153V27.5073Z" fill="black"/>
</g>
<defs>
<clipPath id="clip0_39_379">
<rect width="147" height="40" fill="white"/>
</clipPath>
</defs>
</svg>
