<svg width="309" height="49" viewBox="0 0 309 49" fill="none" xmlns="http://www.w3.org/2000/svg">
<path d="M10.2424 38.3782V9.58808H17.4146C26.9862 9.58808 32.8169 15.403 32.8169 23.9831C32.8169 32.5633 27.012 38.3782 17.4146 38.3782H10.2424ZM57.4554 30.4958C57.4554 24.3191 61.5575 20.2099 66.6916 20.2099C71.8257 20.2099 75.9278 24.3191 75.9278 30.4958C75.9278 36.6725 71.8257 40.7816 66.6916 40.7816C61.5575 40.7816 57.4554 36.6725 57.4554 30.4958ZM47.5226 30.4958C47.5226 40.7817 55.6752 49 66.6916 49C77.7079 49 85.8606 40.7817 85.8606 30.4958C85.8606 20.2099 77.5789 11.9916 66.6916 11.9916C55.8042 11.9916 47.5226 20.2099 47.5226 30.4958ZM100.54 30.4958C100.54 23.9056 104.23 20.2099 109.441 20.2099C114.292 20.2099 118.007 23.9056 118.007 30.4958C118.007 37.086 114.317 40.7816 109.441 40.7816C104.23 40.7816 100.54 37.086 100.54 30.4958ZM90.9689 47.9663H100.54V43.5211H100.876C101.624 44.5549 102.527 45.4335 103.533 46.2606C105.391 47.6303 107.971 49 111.815 49C120.716 49 127.888 41.8154 127.888 30.4958C127.888 19.1762 120.716 11.9916 111.815 11.9916C107.971 11.9916 105.391 13.3613 103.533 14.731C102.501 15.558 101.624 16.4367 100.876 17.4705H100.54V0H90.9689V47.9921V47.9663ZM133.744 47.9663H143.316V29.462C143.316 24.6034 146.334 21.5796 151.52 21.5796H156.654V12.3275H152.552C149.069 12.3275 146.876 13.8265 145.509 15.2737C144.683 16.1007 144.064 17.057 143.651 18.1424H143.316V12.9995H133.744V47.9663ZM168.419 30.4958C168.419 24.3191 172.521 20.2099 177.655 20.2099C182.789 20.2099 186.891 24.3191 186.891 30.4958C186.891 36.6725 182.789 40.7816 177.655 40.7816C172.521 40.7816 168.419 36.6725 168.419 30.4958ZM158.486 30.4958C158.486 40.7817 166.639 49 177.655 49C188.671 49 196.824 40.7817 196.824 30.4958C196.824 20.2099 188.542 11.9916 177.655 11.9916C166.768 11.9916 158.486 20.2099 158.486 30.4958ZM211.504 30.4958C211.504 23.9056 215.193 20.2099 220.405 20.2099C225.255 20.2099 228.97 23.9056 228.97 30.4958C228.97 37.086 225.281 40.7816 220.405 40.7816C215.193 40.7816 211.504 37.086 211.504 30.4958ZM201.932 47.9663H211.504V43.5211H211.839C212.587 44.5549 213.49 45.4335 214.497 46.2606C216.354 47.6303 218.96 49 222.778 49C231.679 49 238.851 41.8154 238.851 30.4958C238.851 19.1762 231.653 11.9916 222.778 11.9916C218.96 11.9916 216.354 13.3613 214.497 14.731C213.465 15.558 212.587 16.4367 211.839 17.4705H211.504V0H201.932V47.9921V47.9663ZM252.912 30.4958C252.912 23.9056 256.601 20.2099 261.477 20.2099C266.689 20.2099 270.378 23.9056 270.378 30.4958C270.378 37.086 266.689 40.7816 261.477 40.7816C256.627 40.7816 252.912 37.086 252.912 30.4958ZM242.979 30.4958C242.979 41.8154 250.177 49 259.052 49C262.896 49 265.476 47.6303 267.334 46.2606C268.366 45.4335 269.243 44.5549 269.991 43.5211H270.327V47.9663H279.898V12.9995H270.327V17.4446H269.991C269.243 16.4109 268.34 15.5322 267.334 14.7052C265.476 13.3354 262.896 11.9657 259.052 11.9657C250.151 11.9657 242.979 19.1762 242.979 30.4699V30.4958ZM284.723 21.2437H289.16V47.9663H309V39.7479H298.732V21.2437H308.587V13.0253H298.732V3.43724H289.16V13.0253H284.723V21.2437ZM0 47.9663H17.4404C32.8427 47.9663 43.4463 37.3444 43.4463 23.9831C43.4463 10.6218 32.8427 0 17.4404 0H0V47.9921V47.9663Z" fill="black"/>
</svg>
