<?xml version="1.0" encoding="UTF-8"?>
<!DOCTYPE svg PUBLIC "-//W3C//DTD SVG 1.1//EN" "http://www.w3.org/Graphics/SVG/1.1/DTD/svg11.dtd">
<!-- Creator: CorelDRAW -->
<svg xmlns="http://www.w3.org/2000/svg" xml:space="preserve" width="2480px" height="1016px" version="1.1" style="shape-rendering:geometricPrecision; text-rendering:geometricPrecision; image-rendering:optimizeQuality; fill-rule:evenodd; clip-rule:evenodd"
viewBox="0 0 2480 1016.06"
 xmlns:xlink="http://www.w3.org/1999/xlink"
 xmlns:xodm="http://www.corel.com/coreldraw/odm/2003">
 <defs>
  <style type="text/css">
   <![CDATA[
    .fil0 {fill:#2B2A29}
   ]]>
  </style>
 </defs>
 <g id="Layer_x0020_1">
  <metadata id="CorelCorpID_0Corel-Layer"/>
  <path class="fil0" d="M318.85 181.06l0 -157.23 -17.76 -1.11c-6.1,-0.48 -11.25,-0.99 -18.92,-0.99l-161.42 0c-5.09,0 -3.15,9.89 -3.15,19.92 0,116.34 -2.09,232.48 -2.09,349.04l4.26 185.46c0.38,3.81 0.17,9.51 4.12,9.51l193.91 0c0,-120.27 1.05,-238.57 1.05,-359.53 3.23,-0.86 34.18,-27.06 39.23,-31 8.23,-6.43 33.49,-25.59 42.53,-27.7 0.84,10.08 36.68,97.97 41.03,108.86l86.1 213.68c7.02,17.53 13.03,38.13 19.5,55.98 4.66,12.87 14.35,43.9 32.61,43.9 28.64,0 15.37,-34.45 9.74,-48.52 -3.75,-9.35 -7.24,-16.66 -11.09,-25.6 -7.63,-17.72 -15.18,-33.79 -22.46,-51.96l-85.2 -212.49c-9.44,-23.75 -36.38,-83.09 -41.93,-106.91 4.9,-7.31 22.99,-21.2 30.7,-26.95l48.83 -37.13c13.8,-10.99 39.97,-31.25 39.97,-48.07 0,-5.47 -4.85,-14.68 -14.68,-14.68 -16.54,0 -43.31,30.45 -54.25,40.09l-12.23 10.83c-5.05,3.9 -7.74,7.14 -12.85,11.25l-65.91 51.49c-10.93,8.22 -60.98,47.84 -69.64,49.86zm460.16 96.43c1.19,1.37 0.48,0.36 1.74,2.45l4.24 9.38c1.12,2.61 1.92,3.8 3.1,6.33l77.61 173.96c1.89,4.39 4.45,8.6 5.55,13.32 -8.28,0 -12.36,-1.1 -19.89,-1.07 -14.34,0.06 -55.89,0.88 -64.86,-0.13 -13.4,-1.5 -47.17,-0.91 -64.1,-0.89 -8.48,0.01 -13.7,-1.05 -20.96,-1.05 0.12,-5.55 5.73,-21.51 7.78,-26.81l64.39 -163.06c1.76,-4.3 4.45,-8.35 5.4,-12.43zm-115.31 197.06c-14.55,0 -32.45,-2.91 -45.07,3.14 0,14.06 -4.6,33.55 28.31,33.55 -8.07,34.61 -36.12,46.07 -22.02,75.46 9.29,0 17.1,2.1 25.16,2.1 13.86,-20.69 16.08,-30.95 25.29,-53.32l8.25 -19c34.86,0 66.54,-1.05 101.68,-1.05 34.59,0 69.17,0 103.76,0l29.35 68.13c16.9,0 32.37,1.05 50.32,1.05l102.72 0c18.13,0 32.9,1.05 51.36,1.05 -4.11,-17.64 -58.63,-135.86 -72.02,-166.97l-16.39 -36.02c-3.17,-6.56 -5.28,-12.25 -8.37,-18.88l-62.53 -136.63c-1.52,-3.4 -2.6,-6.15 -4.22,-9.41l-25.13 -54.53c-2.9,-6.52 -5.51,-12.31 -8.41,-18.84 -5.23,-11.75 -11.52,-23.91 -16.75,-35.66l-51.37 -109c-3.54,2.6 -22.63,52.89 -24.71,58.1 -8.14,20.35 -16.12,39.29 -24.25,59.6l-120.85 297.38c-4.03,10.07 -7.94,19.32 -12.13,29.8l-11.98 29.95zm1130.99 -196.01l34.96 75.11c2.25,4.68 3.8,8.59 5.94,12.92 12.69,25.69 28.11,62.74 39.79,89.14l10.51 27.22c-21.23,0 -101.08,2.28 -115.59,0.29 -8.97,-1.23 -37.03,0.26 -57.36,-4.48 1.69,-7.26 6.69,-17.82 9.72,-24.86l66.19 -163.36c0.93,-2.31 1.46,-3.67 2.37,-6.02 1.18,-3.05 1.18,-4.28 3.47,-5.96zm-119.49 194.96c-24.7,0 -44.02,-6.07 -44.02,18.87 0,10.82 14.03,14.88 20.05,17.68 3.79,1.76 4.99,3.33 9.3,4.33 -0.5,6.02 -10.62,22.19 -13.58,27.3 -4.15,7.15 -19.24,35.24 -7.11,42.65 34.66,21.18 47.46,-45.01 58.42,-67.85 10.04,0 16.01,-1.05 26.21,-1.05l176.09 0c3.53,0 6.74,9.72 8.99,15.11l15.27 35.05c2.19,5.34 5.79,11.96 7.19,17.97 22.49,0 41.4,1.05 63.94,1.05l131.06 1.08c10.73,0.14 12.72,2.82 -0.34,-30.13 -6.04,-15.26 -27.58,-59.07 -36.4,-78.9l-165.75 -361.49c-3.03,-7.49 -7.26,-15.01 -10.64,-22.91 -3.29,-7.71 -6.63,-15.14 -10.19,-22.3 -9.82,-19.75 -21.21,-48.82 -31.43,-68.14 -3.29,2.2 -2.39,1.75 -4.22,5.21 -17.28,32.67 -32.84,76.33 -46.54,110.69l-141.77 349.83c-1.22,3.24 -1.21,5.95 -4.53,5.95zm-204.39 -162.47c-1.22,-5.22 -5.22,-13.19 -7.19,-17.97 -2.48,-6 -4.94,-11.96 -7.46,-17.7 -20.36,-46.34 -40.44,-98.37 -60.85,-144.59 -5.24,-11.87 -9.88,-23.82 -15.34,-36.02 -2.78,-6.22 -4.73,-11.52 -7.4,-17.75 -2.75,-6.4 -5.17,-12.1 -7.78,-18.43l-15.57 -35.79c-35.64,0 -71.28,0 -106.92,0 -35.99,0 -69.33,-1.05 -105.86,-1.05 0.42,5.1 22.63,53.33 26.8,63.34 16.03,38.49 36.14,80.3 51.66,118.15l11.83 26.95c1.18,2.87 2.68,6.5 4.06,9.57 2.63,5.85 5.08,12.08 8.02,18.18 20.82,43.34 42.9,101.94 63.59,145 2.93,6.11 5.39,12.34 8.02,18.19l80.72 183.41c1.45,-6.19 9.01,-17.69 11.85,-24.84l143.73 -361.49c4.8,-12 9.82,-23.67 14.07,-35.19 8.86,-23.98 18.48,-46.69 28.01,-70.52 2.49,-6.23 4.42,-11.23 6.88,-17.24 6.82,-16.63 26.91,-53.09 17.94,-71.67 -1.95,-4.03 -1.38,-2.63 -7.07,-3.41 -6.16,-0.85 -13.26,-1.57 -19.39,-1.57 -0.84,3.58 -2.23,5.49 -3.86,8.72 -11.51,22.82 -42.05,108.52 -53.78,138.04l-49.87 128.32c-1.69,4.25 -5.97,15.25 -8.84,17.36zm399.35 552.39c4.43,2.13 9.38,3.54 14.08,5.84 3.46,1.7 3.28,1.04 4.3,5.14l2.59 48.77 -59.75 0 0 -51.36c7.5,-1.75 14.32,-4.5 22.01,-6.29l0 -2.1c-7.23,-1.68 -9.96,-5.24 -27.25,-5.24 -10.72,0 -34.66,-1.81 -39.83,5.24l20.96 7.34c0,43.04 1.05,82.7 1.05,125.78 -7.4,0.62 -14.61,5.68 -22.01,6.29 3.07,11.49 42.91,10.05 53.91,7.79 6.26,-1.28 8.4,-3.53 13.17,-4.64l0 -2.1c-6.9,-1.61 -13.14,-3.66 -19.91,-5.24l-1.02 -30.43c0,-6.48 -1.11,-8.12 -1.11,-14.61 -0.01,-5.59 0.03,-11.2 0.03,-16.8l59.75 0 1.05 59.74c-1.88,0.9 -19.66,6.1 -22.02,6.29 2.88,10.77 20.63,8.44 33.58,8.43l23.87 -1.29c5.81,-0.98 4.06,-2.78 8.59,-3.99l0 -2.1c-3.86,-0.9 -7.29,-1.95 -10.61,-3.01 -3.55,-1.13 -7.34,-1.83 -10.35,-3.28 0,-43.09 -1.05,-83.43 -1.05,-125.78 6.71,-3.22 15.41,-5.22 22.01,-8.39 -2.48,-3.39 -7.52,-3.96 -13,-4.81 -11.68,-1.83 -46.85,-3.63 -53.04,4.81zm516.76 72.33l42.53 2.54c5.14,0.78 9.58,0.6 15.12,0.6 0.79,3.39 1.86,4.57 3.12,7.36 7,15.44 13.81,26.38 1.71,42.55 -7.32,9.77 -26.48,13.48 -37.29,13.03 -8.8,-0.36 -18.52,-2.81 -23.1,-3.19 0,-5.25 0.01,-10.5 0.03,-15.75 0.03,-6.95 -1.1,-9.03 -1.11,-15.66 -0.01,-5.24 0.14,-10.57 0.08,-15.8 -0.08,-6.11 -1.09,-8.64 -1.09,-15.68zm0 -8.39c2.93,-12.58 1.05,-42.09 1.05,-57.65 15.72,-1.3 39.38,-4.12 52.45,5.2 13.45,9.6 14.91,41.48 -9.58,49.21 -13.72,4.32 -26.38,3.24 -43.92,3.24zm-41.93 -66.03c3.8,5.68 13.86,9.23 23.06,9.43l-1.05 126.83 -20.96 8.39c4.17,0.97 4.51,2.27 9.16,3.42 2.08,0.51 8.49,1.42 10.9,1.67 22.58,2.35 71.49,0.85 90.18,-5.96 17.83,-6.5 34.35,-41.23 11.12,-62.84 -4.68,-4.36 -10.56,-5.93 -17.59,-7.57 0.46,-5.54 3.09,-6.32 6.73,-8.99 10.37,-7.6 18.42,-14.3 18.42,-30.84 0,-17.06 -9.41,-25.51 -21.68,-30.72 -21.73,-9.22 -63.5,-8.18 -88.57,-5.11 -6.16,0.76 -14.06,2.29 -19.72,2.29zm-1276.69 1.05c4.58,6.24 15.04,8.39 20.97,11.53l-0.02 107.97c-0.03,6.62 1.07,9.37 1.07,14.66 -7.69,1.8 -14.52,4.55 -22.02,6.29 3.23,12.09 18.74,9.28 25.31,8.54l103.62 -0.15c0,-18.23 -1.05,-32.93 -1.05,-51.36l-2.75 6.68c-11.17,32.72 -21.51,35.25 -52.8,35.25 -10.13,0 -17.39,-2.41 -26.21,-3.15 0,-10.48 0.03,-20.96 0,-31.45 -0.02,-11.17 1.05,-19.51 1.05,-31.44 3.75,0.08 12.64,1.37 16.01,1.81 5.53,0.72 12.54,-0.76 15.52,2.3 1.4,1.44 3.84,10.21 5.11,12.71 1.27,2.5 6.45,8.98 8.43,10.43 2.3,-4.09 1.05,-34.99 1.05,-41.93 0,-7.43 -2.88,-16.93 -7.33,-19.91 -0.9,3.86 -2.16,7.12 -3.53,11.15 -1.51,4.43 -3.42,7.17 -3.81,11.91 -6.16,0 -8.65,1.11 -15.74,1.04 -7.13,-0.07 -9.56,1.06 -16.76,1.06l0 -55.56c18.1,0 26.49,-4.77 50.26,0.06 6.98,1.41 10.89,3.32 15.03,8.03 3.17,3.62 12.64,29.86 13.33,32.79 12.44,-9.11 -0.06,-44.72 -2.1,-53.46l-110.12 -0.06c-6.14,0.13 -8.45,2.11 -12.52,4.26zm286.16 9.43c0,13 1.11,23 1.03,36.7 -0.04,7.6 1.12,10.47 1.09,17.78l-3.17 70.25c-6.42,1.5 -14.79,5.78 -20.96,6.29l0 2.1c3.79,1.01 3.34,2.44 7.3,4.22 2.75,1.24 6.38,2.07 10.52,2.07l111.1 0c0,-16.99 6.29,-43.61 6.29,-60.8 -2.23,1.5 -6.48,7.07 -7.89,9.93 -2.21,4.47 -2.46,8.89 -3.82,14 -6.63,24.88 -28.71,24.45 -44.46,26.85 -8.81,1.34 -23.04,-1.51 -32.92,-1.51l0 -61.84c11.7,0 20.2,1.04 32.49,1.04 0.87,10.46 6.78,18.83 14.67,24.11l0 -62.89c-10.9,7.3 -10.53,14.31 -15.72,24.11 -8.08,0 -25.04,0.61 -31.44,2.1l0 -55.56c5.8,0 8.92,-1.6 14.69,-2.07 39.48,-3.21 53.27,0.69 62.87,41.9 13.21,-3.52 1.78,-47.65 0,-51.36 -13.4,0 -72.15,0.79 -80.27,-0.44 -4.9,-0.74 -36.14,-1.9 -40.08,-0.4 -2.25,0.86 -3.21,2.88 -2.74,6.27 0.43,3.1 2.04,2.3 4.87,2.83 5.53,1.05 11.29,3.88 16.55,4.32zm-1056.57 59.75c0,-22.42 6.63,-48.62 25.13,-61.88 29.52,-21.15 69.21,4.54 69.21,54.54 0,23.57 0.64,41 -12.63,61.79 -22,34.46 -67.47,27.25 -78.5,-26.21 -1.43,-6.92 -3.21,-20.5 -3.21,-28.24zm-25.16 0l0 7.33c0,39.08 32.6,76.52 71.28,76.52 86.48,0 94.44,-122.04 34.39,-154.93 -7.07,-3.87 -20.72,-7.72 -31.02,-7.2 -18.58,0.94 -42.11,9.46 -53.38,23.02 -11.15,13.41 -21.27,31.14 -21.27,55.26zm538.77 -70.23c0.8,9.64 9.88,10.23 20.96,10.48l-1.05 125.78c-6.41,1.5 -14.79,5.78 -20.96,6.29 7.21,10.77 40.9,7.34 57.65,7.34 7.58,0 11.63,-3.85 14.68,-8.39l-27.26 -5.24 -1.02 -43c0.03,-6.37 -1.07,-8.34 -1.07,-13.6l35.63 0c0.1,4.25 1.43,7.93 2.36,12.32 0.75,3.56 1.98,7.91 2.89,11.79 7.56,-5.07 7.35,-0.5 7.3,-17.85 -0.02,-5.78 0.83,-6.73 1.09,-11.5 0.38,-7.13 0.3,-17.64 -1.66,-24.55 -1.42,-5 -2.19,-4.55 -5.69,-6.9 -3.64,6.89 -5.06,16.13 -8.38,23.06 -5.59,0 -11.19,0.03 -16.78,0 -6.84,-0.04 -10.36,1.05 -15.72,1.05l1.06 -22c0.85,-15.82 -8.12,-44.6 31.37,-38.74 15.27,2.27 27.81,2.39 34.66,13.57 3.14,5.13 3.91,11.69 6.62,17.49 1.35,2.89 2.42,5 4.04,7.49 2.93,4.54 3.21,5.42 6.11,6.47 -1.84,-7.9 -2.71,-18.56 -3.87,-26.53 -1.3,-8.91 -3.47,-19 -3.47,-27.98 -10.13,0 -20.26,0 -30.4,0 -15.93,0.01 -47.61,-2.66 -61.55,-0.76 -3.83,0.53 -9.84,0.47 -14.56,1.17 -5.21,0.77 -8.64,1.73 -12.98,2.74zm-257.85 0c1.53,5.72 13.92,9.33 18.86,10.48l3.16 74.43 -2.11 50.3 -15.72 12.58c5.48,0.46 7.98,2.1 14.67,2.1 13.2,0 29.46,0.91 41.51,-1.47 5.73,-1.13 6.43,-2.73 10.9,-3.77l-27.25 -8.39c0,-19.1 -2.1,-37.29 -2.1,-56.6 6.23,-0.14 20.26,-2.82 29.98,0.42 7.94,2.64 7.58,21.4 16.14,23.69 0.86,-10.31 3.15,-9.87 3.15,-30.4 0,-13.32 -3.01,-24.51 -3.15,-30.4 -5.76,1.54 -7.72,11.17 -9.07,16.09 -1.46,5.36 -0.89,4.65 -5.99,6.59 -10.19,3.88 -18.36,2.85 -28.96,0.38 0,-20.84 -10.3,-58.69 13.63,-58.69 56.55,0 47.95,4.96 59.58,33.7 1.34,3.29 2.54,4.93 3.31,8.22l2.09 0c0.58,-6.94 2.1,-1.37 2.1,-17.82 0,-17.02 -6,-25.69 -7.34,-31.44 -8.06,0 -20.12,-2.42 -28.35,-3.09l-76.35 0.06c-4.68,0.5 -8.06,2.64 -12.69,3.03zm1512.52 2.09c7.27,1.7 13.7,5.65 20.97,7.34 0,27.64 -2.36,71.95 1.19,96.29 3.73,25.49 25.94,48.36 49.12,48.36l11.53 0c23.24,0 36.7,-22.53 41.74,-41.07 5.3,-19.51 2.28,-55.58 2.28,-79.47 0,-16.39 0.33,-19.43 15.12,-27.85 3.96,-2.26 5.82,-1.68 6.9,-5.69 -13.21,-1.1 0.02,-3.15 -36.69,-3.15 -6.97,0 -9.07,1.05 -15.72,1.05 0.33,3.98 2.37,7.87 5.06,9.69 3.76,2.53 5.79,0.79 11.71,0.79 4.82,20.72 6.25,78.35 2.57,99.01 -2.44,13.74 -7.09,24.43 -18.98,31.33 -8,4.64 -14.01,5.93 -23.42,5.93 -28.04,0 -31.45,-58.54 -31.45,-79.66 0,-13.71 1.17,-27.45 2.17,-40.81 0.22,-2.96 0.54,-5.84 0.96,-9.52 0.48,-4.28 0.67,-4.4 4.8,-5.69l17.23 -4.78c-6.82,-10.18 -39.86,-8.49 -52.25,-7.17 -4.17,0.44 -12.36,1.69 -14.84,5.07zm-2065.96 66.04c0,17.18 -0.45,26.13 7.32,41.95 2.17,4.42 3.59,7.25 6.59,11.22 5.21,6.93 11.01,13.44 18.35,18.34 20.17,13.45 48.26,20.19 69.8,9.59 9.94,-4.88 13.43,-10.25 17.25,-18.39 3.14,-6.7 13.8,-8 13.8,-22.88 0,-7.35 -2.65,-9.81 -3.14,-15.72l-2.1 0c-1.44,6.2 -11.03,28.42 -14.66,33.55l-11.98 12.13c-14.04,9.91 -32.84,8.52 -46.96,-0.38 -8.25,-5.2 -7.36,-5.28 -11.63,-10.38 -28.9,-34.61 -19.31,-99.93 7.69,-116.66 14.12,-8.74 36.66,-10.71 49.87,-1.69 16.82,11.48 18.78,44.85 29.77,47.79 1.45,-6.21 4.19,-8.07 4.19,-18.87 0,-12.55 0.35,-34.59 -2.09,-45.07 -6.53,4.37 -12.35,10.31 -18.87,14.68 -7.88,-4.18 -6.4,-4.26 -16.4,-8.75 -30.6,-13.75 -67.05,-0.08 -84.95,30.04 -5.95,10 -11.85,24.1 -11.85,39.5z"/>
 </g>
</svg>
