<?xml version="1.0" encoding="UTF-8"?>
<!DOCTYPE svg PUBLIC "-//W3C//DTD SVG 1.1//EN" "http://www.w3.org/Graphics/SVG/1.1/DTD/svg11.dtd">
<!-- Creator: CorelDRAW -->
<svg xmlns="http://www.w3.org/2000/svg" xml:space="preserve" width="1181px" height="1181px" version="1.1" style="shape-rendering:geometricPrecision; text-rendering:geometricPrecision; image-rendering:optimizeQuality; fill-rule:evenodd; clip-rule:evenodd"
viewBox="0 0 1181 1181"
 xmlns:xlink="http://www.w3.org/1999/xlink"
 xmlns:xodm="http://www.corel.com/coreldraw/odm/2003">
 <defs>
  <style type="text/css">
   <![CDATA[
    .fil0 {fill:#2B2A29}
   ]]>
  </style>
 </defs>
 <g id="Layer_x0020_1">
  <metadata id="CorelCorpID_0Corel-Layer"/>
  <path class="fil0" d="M136.53 338.13c0.36,-4.4 1.12,-5.01 3.94,-6.9 -0.86,3.69 -1.83,4.47 -3.94,6.9zm4.93 -7.89l-0.99 0.99 0.99 -0.99zm0.98 -1.97l-0.98 1.97 0.98 -1.97zm0 0c0.38,-4.58 -1.06,-1.72 1.97,-3.94 -0.63,2.72 -0.47,2.22 -1.97,3.94zm2.96 -5.91l-0.99 1.97 0.99 -1.97zm0.98 -1.98l-0.98 1.98 0.98 -1.98zm0.99 -1.97l-0.99 1.97 0.99 -1.97zm1.97 -2.96l-1.97 2.96zm2.96 -4.93l-0.99 1.97zm0.99 -1.97l-0.99 1.97 0.99 -1.97zm949.35 -104.49l-0.99 -0.99 0.99 0.99zm-0.99 -0.99l-0.98 -0.99 0.98 0.99zm-0.98 -0.99l-0.99 -0.98 0.99 0.98zm-0.99 -0.98l-0.98 -0.99 0.98 0.99zm-0.98 -0.99l-0.99 -0.98 0.99 0.98zm-26.62 -26.62l25.63 25.64zm-25.63 -25.64l-0.99 -0.98 0.99 0.98zm-0.99 -0.98l-0.98 -0.99 0.98 0.99zm-0.98 -0.99l-0.99 -0.98 0.99 0.98zm-0.99 -0.98l-0.99 -0.99 0.99 0.99zm-0.99 -0.99l-0.98 -0.98 0.98 0.98zm-0.98 -0.98l-0.99 -0.99 0.99 0.99zm-0.99 -0.99l-0.98 -0.99 0.98 0.99zm-0.98 -0.99l-0.99 -0.98 0.99 0.98zm-0.99 -0.98c-3.57,-0.96 -2.51,-1.27 -5.24,-3.63 -1.97,-1.69 -2.85,-2.2 -4.87,-4.01 -3.8,-3.38 -6.75,-4.86 -9.6,-9.12 3.57,0.95 2.51,1.27 5.24,3.62 1.97,1.7 2.84,2.21 4.87,4.01 3.8,3.39 6.75,4.87 9.6,9.13zm-19.71 -16.76l-0.99 -0.99 0.99 0.99zm-0.99 -0.99l-0.99 -0.98 0.99 0.98zm-0.99 -0.98c-3.23,-0.87 -3.24,-1.43 -4.92,-3.95 3.23,0.87 3.24,1.43 4.92,3.95zm-162.66 -84.78l-1.97 -0.99 1.97 0.99zm-1.97 -0.99c-4.68,0 -1.87,0.02 -2.96,-0.99 4.69,0 1.87,-0.02 2.96,0.99zm-2.96 -0.99l-2.12 -0.54 2.12 0.54zm-4.93 -1.97l2.12 0.55 -2.12 -0.55zm0 0c-4.68,0 -1.87,0.03 -2.95,-0.98 4.68,0 1.87,-0.03 2.95,0.98zm-2.95 -0.98c-4.69,0 -1.87,0.02 -2.96,-0.99 4.68,0 1.87,-0.02 2.96,0.99zm-2.96 -0.99c-4.68,0 -1.87,0.02 -2.96,-0.98 4.68,0 1.87,-0.03 2.96,0.98zm-2.96 -0.98c-4.68,0 -1.87,0.02 -2.96,-0.99 4.69,0 1.87,-0.02 2.96,0.99zm-2.96 -0.99c-1.98,-0.05 -1.68,0.1 -3.55,-0.39 -0.3,-0.08 -1.2,-0.38 -1.48,-0.49 -1.41,-0.58 -1.12,-0.57 -1.87,-1.09 1.99,0.04 1.69,-0.1 3.56,0.39 0.3,0.08 1.2,0.38 1.47,0.49 1.42,0.58 1.13,0.57 1.87,1.09zm-6.9 -1.97c-1.98,-0.05 -1.68,0.09 -3.55,-0.39 -0.3,-0.08 -1.2,-0.39 -1.48,-0.5 -1.41,-0.57 -1.12,-0.56 -1.87,-1.08 1.99,0.04 1.69,-0.1 3.56,0.39 0.3,0.08 1.2,0.38 1.47,0.49 1.42,0.58 1.12,0.57 1.87,1.09zm-6.9 -1.97c-5.16,-0.12 -10.12,-2.3 -15.17,-3.56 -5.93,-1.47 -9.78,-2.41 -15.95,-3.76 -5.77,-1.27 -10.54,-2.5 -16.1,-3.62 -2.47,-0.5 -6.06,-1.2 -8.24,-1.62 -1.93,-0.37 -2.33,-0.34 -4.11,-0.83l-3.52 -1.4c6.02,0 57.79,11.1 63.09,14.79zm-63.09 -14.79l-5.92 -0.99c0.73,0 2.26,-0.07 2.93,0.04 0.26,0.04 0.58,0.08 0.85,0.13l1.47 0.5c0.16,0.05 0.46,0.19 0.67,0.32zm-11.83 -1.97l4.93 0 0 0.98 -4.93 0 0 -0.98zm-5.92 -0.99l3.95 0c-1.84,1.17 2.2,1.11 -1.97,0.81 -2.11,-0.14 -0.88,-0.12 -1.98,-0.81zm-7.88 -0.98c0.55,0 1.61,-0.02 1.9,0.06 1.79,0.52 1.06,0.27 2.04,0.92l-3.94 -0.98zm-8.87 -0.99l5.91 0 0 0.99 -5.91 0 0 -0.99zm-31.55 -2.96c4.77,0 11.05,-0.35 15.64,0.14 4.68,0.5 9.35,1.83 14.92,1.83l0 0.99c-5.81,0 -8.95,-0.52 -14.48,-1.29 -4.78,-0.66 -9.88,-0.68 -16.08,-0.68l0 -0.99zm-561.92 280.96c1.34,-5.77 4.03,-8.5 6.91,-12.8 2.67,-3.99 4.68,-9.73 7.64,-13.07 6.36,-7.18 10.12,-16.19 11.9,-18.66 6.92,-9.62 3.72,-3.09 12.76,-17.79l47.29 -55.24 65.26 -58.96 23.71 -16.71c22.59,-15.93 53.73,-34.43 77.87,-46.34l27.9 -12.51c19.77,-8.45 9.49,-5.81 29.74,-11.67 6.62,-1.92 9.14,-3.77 14.73,-5.98 4.82,-1.9 10.8,-3.16 16.03,-4.67 11.39,-3.29 21.15,-5.75 32.87,-8.53 27.99,-6.64 68.42,-13.26 97.59,-14.79 33.6,-1.77 95.74,0.7 126.89,5.23 38.35,5.57 48.63,8.91 83.88,18.64 5.01,1.38 10.15,3.18 15.75,4.95 4.51,1.41 10.68,3.87 15.17,5.54 5.22,1.94 9.89,3.34 15.21,5.48l56.93 25.88c18.16,9.08 40.71,22.97 57.25,34.44l12.51 8.19c2.5,1.49 7.57,7.41 17.46,14.08 2.8,1.89 9.4,7.24 11.04,9.67 -2.71,-0.72 -3.93,-2.15 -6.07,-3.79 -2.13,-1.65 -3.66,-2.63 -5.76,-4.1 -12.86,-9.03 -20.48,-15.93 -35.68,-25.44 -8.51,-5.31 -16.88,-9.89 -25.39,-15.03 -11.79,-7.11 -43.41,-23.69 -53.98,-27.84l-30.02 -10.4c-38.59,-14.36 -86.68,-28.96 -128.99,-33.67 -26.79,-2.98 -103.72,-8.34 -125.11,-2.78l-16.84 0.83c-4.26,0.21 -6.06,1.27 -9.13,1.71 -3.68,0.53 -5.43,-0.05 -8.99,0.87 -8.07,2.07 -14.34,1.43 -26.83,3.73l-33.72 7.68c-10.28,2.59 -21.59,5.9 -31.96,8.47l-74.39 27.14c-20.33,9.77 -63.22,30.95 -78.63,42.62 -9.78,7.41 -12.42,6.93 -25.08,16.34 -6.59,4.89 -2.24,2.74 -11.78,8.91 -10.76,6.97 -14.9,12.41 -22.27,18.15 -12.91,10.06 -9.18,6.07 -22.01,18.42l-10.37 9.34c-13.41,13.43 -22.47,21.85 -35.48,36.49l-30.05 36c-0.76,0.94 -0.55,0.64 -1.35,1.6 -0.14,0.16 -0.33,0.37 -0.46,0.53 -3.05,3.72 -4.31,7.78 -8.62,13.07l-25.33 36.77zm726.55 -246.45c5.17,0.43 13.27,3.6 16.78,5.89l54.35 26.49c6.38,2.62 37.1,21.04 44.22,25.77l13.67 9.01c2.43,1.83 4.2,3.18 6.74,5.09 4.8,3.62 8.8,6.34 13.67,9.99 13.41,10.05 38.24,30.85 49.96,42.71 4.14,4.19 19.36,21.43 25.38,21.93 -0.97,-3.65 -0.99,-1.27 -1.97,-4.92 3.03,2.03 4.75,5.07 6.86,7.93 3.99,5.43 4.2,3.13 9.9,5.87 -2.28,-9.78 -29.69,-33.91 -38.69,-44.13l-11.82 -12.82c-2.56,-2.55 -3.92,-3.06 -6.43,-5.4 -16.59,-15.43 -34.64,-29.6 -53.47,-42.15 -4.76,-3.17 -9.34,-6.02 -14.08,-9.58 -9.07,-6.81 -19.5,-13.2 -29.24,-19.07l-31.27 -17.03c-21.86,-10.82 -43.97,-20.04 -66.53,-29.1 -11.78,-4.74 -23.74,-7.78 -35.9,-12.4 -31.06,-11.8 -87.41,-22.36 -119.75,-23.2l-22.65 -1.01c-8.54,0.04 -14.14,-0.97 -23.22,-1l-0.43 0c-17.34,0.02 -31.13,0.24 -46.34,1.98 -7.16,0.81 -15.01,0.3 -22.53,1.13l-31.96 4.51c-4.47,0.87 -5.37,1.61 -9.61,2.22 -19.9,2.88 -39.33,7.01 -58.52,13.44 -6.15,2.07 -11.82,3.85 -17.99,5.67 -7.16,2.1 -11.18,3.65 -17.72,5.94 -15.33,5.36 -29.21,9.88 -43.43,16.71 -3.05,1.46 -5.53,2.19 -8.24,3.59 -1.29,0.67 -2.53,1.48 -3.77,2.14l-12.32 5.43c-11.14,5.34 -21.19,10.75 -31.39,16.91l-29.58 18.73c-12.09,7.75 -23.15,17.46 -35.5,24.65 -7.61,4.43 -2.86,3 -11.92,9.75 -16.52,12.3 -54.82,48.66 -67.44,63.68l-47.16 60.29c-11.29,16.94 -21.72,35.1 -31.95,52.84 -16.33,28.32 -34.27,69.47 -43.31,100.62 -4.45,15.33 -11.68,30.01 -12.86,46.29 -0.49,6.83 0.01,5.55 -2.03,10.77 -2.32,5.92 -1.74,13.33 -3.69,19.98l-1.37 10.46c-0.34,3.37 -1.68,6.07 -2.41,9.42 -1.1,5.1 -2.38,15.98 -2.42,21.24 -0.04,5.97 -0.63,17.12 -1.54,23.11 -1.7,11.29 -0.04,23.6 -0.38,35.1 -0.28,9.44 -1.54,11.95 0.42,22.2 0.85,4.48 0.93,35.45 4.32,55.81l3.83 19.83c1.47,5.17 3.64,26.39 7.8,40.5 1.86,6.3 3.15,13.02 5.15,18.51l11.6 35.72c2.39,7.12 4.54,10.56 6.89,17.76 4.96,15.17 27.18,61.92 34.72,72.73 5.05,7.23 8.92,15.75 13.39,23.09 3.07,5.03 6.23,9.52 9.59,14.07 16.92,22.87 33.23,47.05 53.34,66.93 2.68,2.66 3.24,3.46 5.52,6.31 1.88,2.37 3.62,3.83 5.81,6.02l7.52 7.27c0.15,0.13 0.37,0.33 0.52,0.47 13.98,13.38 26.01,26.31 41.5,38.34l33.7 25.45c10.38,7.05 47.04,32 59.24,37.37 3.79,1.67 4.95,2.67 8.29,4.54 10.27,5.74 20.57,11.5 31.76,15.55l7.99 3.84c2.53,1.2 5.42,2.24 8.5,3.33 5.77,2.06 12.58,4.27 17.69,6.95 22.57,11.82 87.84,25.62 112.55,30.4 6.4,1.24 12.89,2.08 20.52,3.14 30.65,4.25 60.9,4.49 92.12,4.49 9.15,0 15.69,-0.98 23.66,-0.98l0 1.97c4.22,-0.98 7.03,-2.47 11.9,-2.89 5.69,-0.48 8.32,-1.82 13.73,-2.04 25.26,-1.05 55.79,-7.58 80.05,-13.6 48.25,-11.98 91.41,-29.74 135.53,-51.78 23.62,-11.8 44.94,-27.51 67.42,-41.02 7.42,-4.46 25.29,-20.39 26.4,-20.92 3.33,-1.58 12.23,-6.99 13.82,-9.85 0.81,-1.46 1.27,-4.03 2.1,-5.78 -5.44,0.46 -11.11,5.23 -14.04,8.64 -9.05,10.53 -22.9,16.63 -33.86,25.29 -30.47,24.09 -94.61,54.57 -131.88,67.26 -11.96,4.07 -22.69,7.64 -35.52,10.8l-76.62 17.04c-8,0.85 -12.45,0.13 -22.12,1.54 -8.06,1.18 -13.09,1.57 -22.13,1.53 -8.59,-0.03 -13.08,1.03 -21.68,1 -8.49,-0.04 -15.7,-0.05 -22.82,-0.85 -8.69,-0.98 -15.73,1.54 -22.4,0.75l-20.86 -2.84c-4.35,-0.38 -17.44,-0.69 -21.06,-1.61 -6.86,-1.75 -12.22,-3.16 -19.5,-4.17 -14.64,-2.02 -25.41,-5.03 -39.99,-7.33 -7,-1.1 -57.06,-16.59 -62.69,-19.13 -2.93,-1.32 -6.07,-2.05 -8.71,-3.11 -10.95,-4.41 -21.9,-9.49 -32.5,-13.84 -16.43,-6.73 -31.53,-14.12 -46.78,-23.22 -5.32,-3.18 -9.93,-5.37 -15.01,-8.65 -5.06,-3.27 -9.26,-5.86 -14.56,-9.09 -15.73,-9.58 -47.18,-32.12 -60.31,-45.18l-71.59 -74.31c-0.39,-0.42 -1.48,-1.42 -1.51,-1.44 -0.66,-0.71 -0.53,-0.41 -1.36,-1.61l-19.24 -28.07c-3.02,-4.56 -6.46,-9.18 -9.04,-13.64l-8.91 -14.74c-9.53,-14.44 -15.76,-30.77 -23.97,-46.03 -1.64,-3.04 -2.86,-4.27 -4.31,-7.52l-25.93 -68.71 -11.59 -47.56c-9.05,-42.7 -12.07,-84.34 -12.07,-127.92 0,-26.46 3.22,-49.59 6.71,-75.1 1.47,-10.7 5.76,-34.85 9.16,-44.09l6.26 -22.32c2.96,-11.95 6.57,-24.97 11.73,-35.59l9.73 -24.77c2.17,-8.52 7.41,-16.38 10.77,-24.73 3.14,-7.81 8.63,-15.35 12.68,-22.81 1.55,-2.86 2.85,-4.37 4.23,-7.59 3.77,-8.78 16.04,-25.48 22.29,-35.87l25.5 -32.68c2,-2.42 3.37,-4.37 5.14,-6.69l27.36 -31.78c4.37,-4.34 8.01,-6.98 12.33,-11.33 2.2,-2.21 3.7,-3.76 5.9,-5.93l18.5 -16.99c8.63,-6.58 15.36,-15.95 24.58,-21.75l13.16 -10.5c8.87,-7.56 62.89,-42.15 71.43,-45.89 5.64,-2.48 9.54,-5.88 15.05,-8.61l48.58 -21.41c6.49,-2.56 10.16,-4.68 16.12,-7.54 5.25,-2.51 11.65,-3.22 17.5,-5.17 9.29,-3.1 17.12,-7 26.66,-8.84 9.9,-1.91 17.65,-6.13 27.59,-7.9 4.36,-0.77 5.25,-0.73 9.12,-1.73 3.59,-0.92 6.4,-1.15 10.06,-1.76 20.08,-3.38 42.24,-5.39 62.64,-8.33 29.09,-4.21 73.95,1.36 89.43,-0.25 8.9,-0.93 30.94,3.76 40.73,5.32 7.51,1.19 12.55,2.45 19.98,3.67 25.54,4.19 51.25,10.51 75.82,18.82 5.19,1.75 12.96,4.56 19.1,4.56 -1.61,-2.42 -4.1,-3.67 -6.56,-5.27 -1.92,-1.24 -0.81,-0.33 -2.31,-1.63zm-543.19 418.97l0 -54.22 -71.96 0 0 184.35c0,5.48 0.98,5.85 0.98,10.85l70.98 0 0.99 -124.22 25.63 -18.73 7.89 18.73c9.95,25.27 31.08,72.43 39.07,95.99 2.17,6.39 7.52,24.51 12.43,28 4.04,2.88 6.22,1.58 10.6,1.21 3.48,-14.92 -4.72,-22.09 -13.38,-43.8 -2.62,-6.58 -4.95,-11.89 -7.47,-18.16 -2.36,-5.86 -4.63,-12.06 -7.4,-18.23l-28.92 -72.61c3.54,-5.3 22.1,-17.82 29.57,-23.66 1.96,-1.53 4.05,-3.08 6.09,-4.76 2.05,-1.69 3.72,-4 4.59,-6.32 1.45,-3.89 0.5,-4.65 0.16,-8.64 -11.5,-0.96 -7.99,-3.48 -23.9,12.57 -6.74,6.81 -10.06,7.58 -18.5,14.04 -9.37,7.17 -27.95,22.58 -37.45,27.61zm516.58 36.48l30.56 68.02c-7.17,0 -50.55,0.5 -56.06,-1.2 -3.69,-1.15 -0.51,-3.79 2.97,-12.45l22.53 -54.37zm-41.41 65.06c-3.53,-0.08 -16.76,-4.46 -16.76,6.9 0,3.99 5.4,6.8 9.86,6.9 -0.58,7 -8.87,15.36 -8.87,19.72 0,3.58 1.17,3.46 1.97,6.9 16.74,0 13.35,-7.28 21.69,-24.64l70.98 0 10.84 23.66 72.95 0c-2.46,-5.14 -4.64,-14.36 -10.84,-26.63 -4.2,-8.32 -7.85,-16.67 -12.16,-25.29 -12.66,-25.33 -25.66,-56.35 -38.46,-82.8l-5.92 -12.82c-1.28,-2.67 -1.69,-4.23 -2.94,-6.91l-17.74 -38.45c-2.6,-4.81 -4.5,-9.12 -7.56,-11.17 -1.58,6.76 -5.47,14.17 -8.04,20.55l-33.5 81.85c-2.69,6.56 -5.79,14.23 -8.71,20.85l-16.79 41.38zm-313.49 -64.08c1.16,4.99 5.09,11.58 7.18,16.48l23.38 50.56c-10.73,0 -17.74,-0.99 -28.59,-0.99 -9.86,0.01 -19.72,0 -29.58,0 0.3,-3.61 4.54,-12.93 6.05,-16.62l13.8 -33.52c1.45,-3.53 5.03,-13.91 7.76,-15.91zm-42.39 64.08c-8.18,-0.18 -7.63,-3.48 -15.78,1.97l0 8.88c2.84,0.66 7.51,2.69 9.86,3.94 -2.23,4.22 -8.87,14.44 -8.87,19.72 0,3.34 3.56,6.9 6.9,6.9 10.41,0 12.79,-25.63 18.73,-25.63l66.05 0c3.51,0 12.7,23.15 12.82,23.66l72.95 0 -69.67 -154.12c-4.48,-8.91 -21.24,-47.22 -24.97,-49.95 -7.47,15.57 -43.67,105.68 -50.84,123.66 -2.75,6.91 -5.45,13.71 -8.34,20.25 -2.94,6.65 -5.52,14.45 -8.84,20.72zm282.93 -57.18c-0.33,-3.91 -7.91,-20.31 -9.83,-24.67l-10.17 -24.34c-2.02,-5.1 -20.11,-45.85 -20.42,-49.57l-77.88 0c0.99,4.25 3.38,8.58 5.27,12.48 2.09,4.31 3.97,8.71 5.71,13.01 9.2,22.68 25.17,53.89 34.51,76.9 1.64,4.05 3.5,7.62 5.49,12.25l17.37 38.82c3.92,8.38 8.08,17.03 11.36,25.11 2.14,5.27 8.77,21.71 12.96,24.51 0.36,-4.35 2,-5.45 3.54,-9.27 1.54,-3.86 2.25,-6.2 3.78,-10.02l62.81 -156.04c1.26,-3.14 2.56,-6.38 3.95,-9.86 1,-2.51 3.24,-7.15 4.01,-9.86 1.89,-6.69 -5.67,-13.81 -12.36,-6.38 -3.14,3.48 -27.07,68.36 -31.09,78.35 -2.06,5.12 -5.34,15.9 -9.01,18.58zm118.3 194.21l0 40.42c0,3.47 -4.54,3.67 -7.89,3.94 1.49,5.56 3.75,3.95 17.75,3.95 4.53,0 6.94,-0.42 7.88,-3.95 -9.94,-0.82 -7.88,-0.9 -7.88,-20.7l19.71 0c0,8.77 0.73,12.37 -0.98,19.72 -4.94,0 -5.75,0.03 -7.89,2.96 11.5,6.08 19.95,1.55 26.62,0 -2.15,-2.93 -2.95,-2.96 -7.89,-2.96 -0.25,-3.08 -0.98,-3.5 -0.98,-6.9l0 -31.55c0,-7.6 3.86,-2.38 8.87,-9.86l-26.62 -0.98c1.64,6.13 8.87,4.32 8.87,9.86l0 13.8 -19.71 0 0 -17.75c4.98,-0.41 7.72,-1.6 8.87,-5.91l-27.61 0c1.11,4.15 4.58,5.82 8.88,5.91zm204.07 22.68c4.92,0 10.75,-0.6 15.23,0.54 9.07,2.31 14.7,20.16 -8.34,20.16l-5.91 0 0 -17.75c0,-3.77 0.3,-0.35 -0.98,-2.95zm0.98 -4.93c0,-20.33 -2.1,-17.75 8.87,-17.75 3.53,0 10.85,1.61 10.85,5.92 0,14.55 -9.62,12.05 -19.72,11.83zm-21.69 -20.71c4.07,0.95 8.54,2.87 12.82,2.96l0 40.42c0,3.58 -5.33,3.87 -8.87,3.94 5.57,8.33 31.16,4.73 38.29,2.81 18.2,-4.92 13.31,-23.21 1.14,-26.47 0,0 18.46,-13.64 2.08,-22.78 -9.59,-5.35 -19.53,-3.73 -30.69,-3.85 -7.64,-0.09 -6.65,0.24 -13.32,2.45l-1.45 0.52zm-442.63 1.98c3.56,0.29 4.69,1.23 7.88,1.97l0 41.4c-1.87,0.9 -5.26,1.76 -7.88,1.97 1.91,7.17 10.9,3.96 18.69,3.92 8.87,-0.05 17.78,0.03 26.66,0.03 1.78,-3.72 6.47,-18.65 0.98,-22.68 -0.69,2.98 -1.11,2.94 -2.25,5.64 -4.88,11.57 -2.2,12.11 -23.38,12.11 -4.79,0 -2.96,-7.17 -2.96,-19.72l9.86 0c0.88,3.79 4,8.9 6.9,10.85 0,-6.1 -0.59,-9.26 -0.93,-13.86 -0.5,-6.92 2.02,-10.17 -4,-11.78l-1.15 7.86c-5.6,1.49 -3.78,1.02 -10.68,1.02l0 -17.75 14.79 0c11.24,0 6.97,11.49 12.82,15.78 0.97,-4.18 3.77,-21.69 -2.96,-21.69l-33.52 0c-5.09,0 -7.79,0.87 -8.87,4.93zm100.55 1.97l0 41.4c-4.42,1.03 -6.68,2.64 -8.87,5.92l47.32 0c0.08,-3.55 1.27,-8.78 1.84,-11.98 1.13,-6.27 2.26,-6.05 -0.86,-10.7 -10.4,7.63 6.27,17.75 -25.63,17.75 -2.66,0 -2.72,-0.47 -4.93,-0.99 2.4,-10.27 0,-10.33 0,-18.73 21.67,0 4.63,5.82 17.75,8.87 0,-9.65 -0.99,-15.43 -0.99,-24.64 -11.67,7.81 4.68,9.86 -16.76,9.86l0.99 -17.75c14.19,0 17.8,-1.8 22.85,5.74 2.79,4.17 2.68,7.33 6.72,10.04 0,-4.04 -0.78,-10.98 -1.44,-15.32 -0.87,-5.63 1.4,-4.88 -11.51,-6.23 -9.82,-1.03 -24.96,-0.14 -35.35,-0.14 1.07,4 4.82,5.95 8.87,6.9zm-352.93 44.36c-21.65,0 -20,-47.32 -1.97,-47.32 4.89,0 6.5,-0.55 10.6,3.2 12.68,11.6 7.63,44.12 -8.63,44.12zm-26.61 -24.65c0,40.43 55.18,36.06 52.79,0.35 -2.69,-40.28 -52.79,-33.91 -52.79,-0.35zm97.59 -25.63c2.12,3.99 2.91,4.76 7.89,5.92l0 41.4c-1.88,0.9 -5.26,1.76 -7.89,1.97 1.63,6.1 6.21,3.95 23.66,3.95 2.79,0 3.81,-2.26 4.93,-3.95 -3.12,-0.25 -7.95,-1.29 -10.84,-1.97l0 -17.74 9.86 0c0.92,3.44 2.43,7.04 4.93,8.87 2.88,-6.02 2.92,-17.56 0,-23.66 -8.62,5.77 2.51,8.87 -14.79,8.87 0,-22.18 -3.02,-18.73 12.81,-18.73 13.64,0 7.81,10.4 13.81,14.79 3.73,-7.06 1.56,-15.88 -0.99,-20.7 -15.25,1.27 -27.72,0.98 -43.38,0.98zm538.27 4.93c0,18.61 -5.07,50.28 21.68,50.28 9.9,0 14.91,-8.17 16.52,-16.02 1.93,-9.41 1.23,-21.38 1.23,-32.29 3.25,-2.17 6.76,-3.66 7.89,-7.88l-21.69 0c1.04,3.9 3.86,5.96 7.88,6.9 0,10.33 5.89,44.36 -13.8,44.36 -13.29,0 -9.86,-34.23 -9.86,-45.35 5.17,-0.11 7.77,-1.76 8.88,-5.91l-26.62 0c1.03,3.85 3.38,5.54 7.89,5.91zm-446.58 -2.96c2.43,2.12 3.2,3.09 6.9,3.95l0 42.39c-4.71,0 -4.09,0.67 -7.89,0.98 2.24,8.4 25.15,4.7 28.59,0 -13.97,-1.16 -10.84,0.3 -10.84,-19.71 14.67,0 8.96,0.84 12.81,8.87 5.33,-3.57 6.12,-21.76 -0.98,-23.66 -0.28,3.26 -1.29,5.92 -1.98,8.87l-9.85 0 0 -18.73c5.11,0 12.56,-0.32 16.96,0.78 8.85,2.23 3.31,12.51 12.61,15 -0.83,-1.73 -2.7,-17.6 -2.96,-20.71 -8.2,0 -15.01,0.08 -21.83,0.84 -3.45,0.39 -7.23,0.12 -10.73,0.12 -5.41,0 -6.54,0.92 -10.81,1.01zm-284.91 21.69c0,31.42 29.62,38.44 42.69,24.94 4.7,-4.85 5.62,-8.97 5.62,-18.04 -6.77,4.54 -6.37,19.54 -18.58,19.39 -27.36,-0.34 -22.74,-46.99 -2.13,-46.99 10.25,0 14.79,10.24 16.76,18.73 3.24,-0.86 2.4,-0.08 3.46,-3.44 1.01,-3.18 0.49,-16.34 0.49,-20.22 -4.37,1.17 -6.05,2.72 -6.9,5.92 -4.88,-3.58 -10.3,-11.24 -26.31,-2.65 -7.58,4.05 -15.1,12.92 -15.1,22.36zm881.33 -529.39l0 0.99 1.15 -0.82 -1.15 -0.17z"/>
 </g>
</svg>
